PathFileType	4	(X/Y/Z)	c:/Users/goper/Files/vsCode/490R/osim_files/A01/A01_Slow_01.trc
DataRate	CameraRate	NumFrames	NumMarkers	Units                	OrigDataRate	OrigDataStartFrame	OrigNumFrames
120.00	120.00	6	36	mm	120.0	856	1710
                Frame#	Time	Mobility_markerset:LPSIS			Mobility_markerset:LASIS			Mobility_markerset:LTH1			Mobility_markerset:LTH2			Mobility_markerset:LTH3			Mobility_markerset:LTH4			Mobility_markerset:LLFE			Mobility_markerset:LMFE			Mobility_markerset:LSH1			Mobility_markerset:LSH2			Mobility_markerset:LSH3			Mobility_markerset:LSH4			Mobility_markerset:LLMAL			Mobility_markerset:LMMAL			Mobility_markerset:LCAL			Mobility_markerset:LMTP5			Mobility_markerset:LTOE			Mobility_markerset:LMTP1			Mobility_markerset:RPSIS			Mobility_markerset:RASIS			Mobility_markerset:RTH1			Mobility_markerset:RTH2			Mobility_markerset:RTH3			Mobility_markerset:RTH4			Mobility_markerset:RLFE			Mobility_markerset:RMFE			Mobility_markerset:RSH1			Mobility_markerset:RSH2			Mobility_markerset:RSH3			Mobility_markerset:RSH4			Mobility_markerset:RLMAL			Mobility_markerset:RMMAL			Mobility_markerset:RCAL			Mobility_markerset:RMTP1			Mobility_markerset:RTOE			Mobility_markerset:RMTP5		
		X1	Y1	Z1	X2	Y2	Z2	X3	Y3	Z3	X4	Y4	Z4	X5	Y5	Z5	X6	Y6	Z6	X7	Y7	Z7	X8	Y8	Z8	X9	Y9	Z9	X10	Y10	Z10	X11	Y11	Z11	X12	Y12	Z12	X13	Y13	Z13	X14	Y14	Z14	X15	Y15	Z15	X16	Y16	Z16	X17	Y17	Z17	X18	Y18	Z18	X19	Y19	Z19	X20	Y20	Z20	X21	Y21	Z21	X22	Y22	Z22	X23	Y23	Z23	X24	Y24	Z24	X25	Y25	Z25	X26	Y26	Z26	X27	Y27	Z27	X28	Y28	Z28	X29	Y29	Z29	X30	Y30	Z30	X31	Y31	Z31	X32	Y32	Z32	X33	Y33	Z33	X34	Y34	Z34	X35	Y35	Z35	X36	Y36	Z36

856	7.12500	-1370.44543	1057.05896	305.69446	-1607.51941	1027.38477	398.36349	-1488.02112	699.78564	444.48819	-1495.56616	653.63324	435.74817	-1548.69849	704.67218	446.90826	-1547.58167	659.75806	433.99731	-1528.88782	538.67169	398.27652	-1544.21716	547.37384	260.54776	-1464.92334	383.86859	382.74335	-1456.74548	336.79514	383.93689	-1525.37207	368.25766	379.73544	-1508.47937	325.41202	379.69632	-1429.43787	93.68018	356.74951	-1418.09229	93.82443	274.65308	-1346.78760	69.35187	317.82159	-1567.50049	36.51130	368.89194	-1593.10803	57.59895	301.98856	-1566.00574	48.06986	267.67435	-1373.48511	1045.99084	204.15466	-1604.92749	1005.56616	141.47588	-1598.64905	675.94507	63.04541	-1624.99609	641.03143	70.38195	-1652.52808	707.26874	65.05692	-1669.42224	668.40210	69.75787	-1710.27173	526.26666	116.93652	-1724.69250	547.69757	235.73618	-1554.64990	370.39618	117.92296	-1540.40698	327.69592	119.55373	-1611.08643	344.96051	114.27225	-1589.46204	305.44482	116.04864	-1493.87244	153.80667	154.04411	-1528.78076	164.41638	236.28273	-1438.55676	146.17857	209.61450	-1628.45215	60.02120	232.61748	-1661.59131	65.06883	183.36028	-1597.18787	52.43700	125.29346
857	7.13333	-1378.28625	1057.08521	304.66263	-1613.86523	1026.49048	398.80817	-1493.21106	699.90338	444.43289	-1500.70630	653.59680	435.55020	-1554.08923	704.21887	447.05203	-1552.62695	659.33246	434.07019	-1533.95215	538.73816	398.65338	-1549.20483	546.71204	260.69873	-1467.84338	384.13223	382.67215	-1459.27344	337.09174	383.88559	-1528.08472	368.05551	379.79562	-1510.98486	325.31531	379.73956	-1429.97168	93.98302	355.93747	-1418.11902	94.68246	274.25763	-1347.09216	70.26516	317.69598	-1567.61047	36.42014	368.96182	-1593.67651	57.31363	301.66754	-1566.21851	48.06672	267.66486	-1382.00977	1046.07263	203.12021	-1613.78308	1005.93579	142.06189	-1609.32446	676.50690	64.00452	-1635.53723	641.89709	71.68050	-1663.19067	708.18579	66.68986	-1680.10693	669.24127	71.73524	-1720.84119	527.54230	119.07893	-1733.73718	548.78931	237.60515	-1572.90271	363.99670	119.29782	-1560.69556	320.77185	120.70724	-1630.31726	340.94907	115.70118	-1610.55750	300.47644	117.46156	-1523.68616	144.31085	155.31133	-1558.44507	156.56104	237.26300	-1469.16443	133.87564	210.90497	-1663.86145	57.99778	232.51193	-1696.00049	64.56757	182.87021	-1631.70105	48.69769	125.43665
858	7.14167	-1386.17346	1057.02893	303.54843	-1622.59680	1026.31726	399.84680	-1498.53076	699.89941	444.32367	-1505.64941	653.60779	435.44028	-1559.51758	703.73761	447.13669	-1557.70850	658.85779	434.13596	-1537.61035	537.92133	398.57635	-1553.36670	546.34766	260.83246	-1470.86243	384.34058	382.71457	-1462.24512	337.11685	384.22244	-1531.01575	367.77011	379.81940	-1513.50769	325.09464	379.78186	-1430.50830	94.41912	355.95459	-1418.92944	94.89711	274.09750	-1347.43689	71.04848	317.69504	-1567.83350	36.22819	368.89108	-1593.75037	57.29595	301.79095	-1566.25391	47.96427	267.44928	-1390.52917	1046.10876	201.98654	-1622.77271	1006.07611	142.55161	-1619.69543	676.70746	64.93691	-1645.79480	642.23505	73.09051	-1673.21790	708.52655	68.20052	-1690.21130	669.69434	73.73943	-1730.96204	528.39911	121.09409	-1742.20020	549.43512	239.65915	-1590.89404	357.75140	120.48912	-1580.83911	313.93802	121.74308	-1648.43518	337.04816	116.82012	-1631.56165	295.76981	118.60435	-1553.53333	135.48753	156.47827	-1589.35352	149.30534	238.80086	-1500.25098	122.26910	212.54092	-1698.78955	56.41373	231.86081	-1730.14734	64.68179	181.93619	-1665.96692	45.66195	125.29169
859	7.15000	-1394.14136	1056.87439	302.30148	-1629.44446	1025.30872	400.76532	-1503.24939	699.99933	444.68079	-1510.64697	653.41840	435.37665	-1564.73291	703.14270	447.32266	-1562.77954	658.29413	434.29620	-1541.93054	537.45471	398.63138	-1558.38647	545.60449	261.00241	-1473.91748	384.45117	382.73883	-1464.67444	337.34219	384.20596	-1533.87732	367.39444	379.95068	-1515.97534	324.82382	379.86267	-1431.03186	94.81329	356.04010	-1419.40955	95.33377	273.91400	-1347.76355	71.86928	317.64478	-1567.93372	36.10571	368.99615	-1593.89355	57.02856	301.77954	-1566.33850	48.11951	267.63919	-1399.16223	1045.89734	200.82031	-1631.81836	1005.95667	142.92917	-1629.56311	676.78217	66.03853	-1655.53845	642.23975	74.54013	-1682.94556	708.53735	69.86155	-1700.02954	669.77130	75.73907	-1740.57349	528.85876	122.90668	-1749.97424	549.55212	241.67290	-1608.79480	351.34161	121.93871	-1601.53101	307.12769	123.18388	-1668.14062	335.05157	117.50115	-1652.57764	291.63788	119.50797	-1583.79321	127.48000	157.54855	-1619.22241	142.93553	239.46410	-1531.22644	111.82370	214.25354	-1733.49744	55.63782	231.22601	-1763.98523	65.48474	181.06477	-1699.84155	43.67052	124.93724
860	7.15833	-1402.25183	1056.65320	300.91473	-1636.84875	1024.27014	401.50647	-1507.92688	699.63147	444.89728	-1515.65381	653.27252	435.24756	-1570.06189	702.48114	447.36990	-1567.84070	657.62982	434.42899	-1546.30371	536.92865	398.80060	-1563.04150	544.95074	261.18369	-1476.95520	384.58121	382.78430	-1467.23584	337.59302	384.17426	-1536.73486	366.86942	380.01511	-1518.42639	324.51743	380.00714	-1431.49182	95.21199	356.12540	-1419.58765	96.06225	273.64426	-1348.11804	72.67448	317.56110	-1567.95728	35.97744	369.09201	-1593.94531	56.77800	301.78802	-1566.84961	48.05579	267.27109	-1407.92908	1045.55676	199.60309	-1640.79968	1005.52600	143.15912	-1639.50842	676.31891	67.55663	-1664.85266	642.00281	75.88659	-1692.40686	708.23358	71.51633	-1709.28210	669.35040	77.57837	-1749.81104	528.86810	124.50913	-1757.10486	549.12238	243.80003	-1626.88342	345.40717	123.27428	-1622.10120	301.41986	124.15442	-1686.93835	332.40570	118.42128	-1674.47083	289.34808	120.40325	-1613.76550	120.59026	158.42194	-1649.18250	137.54054	240.15765	-1563.15771	102.06148	215.31987	-1767.52063	55.80173	230.45392	-1797.24048	67.28167	180.28134	-1733.99719	42.68610	124.78587
861	7.16667	-1410.35107	1056.38489	299.51724	-1644.22437	1023.24408	402.40485	-1513.19849	699.47845	444.78522	-1520.63501	653.03271	435.20084	-1574.22400	702.05548	447.60660	-1572.86450	657.03516	434.53519	-1550.66492	536.30499	398.94376	-1567.30225	544.45013	261.34268	-1479.97070	384.60364	382.78043	-1469.49255	338.05005	383.83987	-1539.54736	366.42526	380.26056	-1520.86841	324.15268	380.12604	-1431.90735	95.59138	356.16959	-1420.06409	96.52175	273.43814	-1348.46497	73.47853	317.48621	-1568.05786	35.88470	369.21033	-1593.97949	56.56998	301.76028	-1566.97632	48.02287	267.24753	-1416.87061	1045.06250	198.14114	-1650.49927	1004.84674	143.77058	-1648.13281	675.95081	68.42291	-1673.62927	641.34174	77.20483	-1701.43933	707.50616	73.13070	-1718.04309	668.66364	79.15546	-1758.64709	528.50165	125.89619	-1763.69934	547.97955	245.94293	-1644.76318	340.00647	124.61609	-1642.54797	295.92392	125.34373	-1705.63269	330.06351	119.31800	-1695.10693	286.43567	121.06026	-1644.22693	114.43695	159.28586	-1678.88037	133.10454	240.76765	-1594.59167	93.69195	216.40472	-1800.93188	56.98641	229.99536	-1830.77271	70.76519	179.47279	-1767.98999	42.49298	124.96415
